<mxfile host="app.diagrams.net" agent="Mozilla/5.0 (Windows NT 10.0; Win64; x64) AppleWebKit/537.36 (KHTML, like Gecko) Chrome/131.0.0.0 Safari/537.36" version="24.9.3">
  <diagram name="Page-1" id="eK-WlX3O_mtEtUWw3yvs">
    <mxGraphModel dx="524" dy="557" grid="1" gridSize="10" guides="1" tooltips="1" connect="1" arrows="1" fold="1" page="1" pageScale="1" pageWidth="850" pageHeight="1100" math="0" shadow="0">
      <root>
        <mxCell id="0" />
        <mxCell id="1" parent="0" />
        <mxCell id="bBqMNh3TFkU5Wcg1Qvp1-1" value="" style="rounded=1;whiteSpace=wrap;html=1;" vertex="1" parent="1">
          <mxGeometry x="100" y="100" width="120" height="60" as="geometry" />
        </mxCell>
        <mxCell id="bBqMNh3TFkU5Wcg1Qvp1-2" value="nfs" style="rounded=1;whiteSpace=wrap;html=1;" vertex="1" parent="1">
          <mxGeometry x="380" y="100" width="120" height="60" as="geometry" />
        </mxCell>
        <mxCell id="bBqMNh3TFkU5Wcg1Qvp1-5" style="edgeStyle=orthogonalEdgeStyle;rounded=0;orthogonalLoop=1;jettySize=auto;html=1;entryX=0;entryY=0.5;entryDx=0;entryDy=0;" edge="1" parent="1" source="bBqMNh3TFkU5Wcg1Qvp1-4" target="bBqMNh3TFkU5Wcg1Qvp1-2">
          <mxGeometry relative="1" as="geometry" />
        </mxCell>
        <mxCell id="bBqMNh3TFkU5Wcg1Qvp1-4" value="pod" style="ellipse;whiteSpace=wrap;html=1;" vertex="1" parent="1">
          <mxGeometry x="110" y="110" width="100" height="40" as="geometry" />
        </mxCell>
        <mxCell id="bBqMNh3TFkU5Wcg1Qvp1-8" style="edgeStyle=orthogonalEdgeStyle;rounded=0;orthogonalLoop=1;jettySize=auto;html=1;entryX=0;entryY=0.5;entryDx=0;entryDy=0;" edge="1" parent="1" source="bBqMNh3TFkU5Wcg1Qvp1-6" target="bBqMNh3TFkU5Wcg1Qvp1-7">
          <mxGeometry relative="1" as="geometry" />
        </mxCell>
        <mxCell id="bBqMNh3TFkU5Wcg1Qvp1-6" value="" style="image;aspect=fixed;perimeter=ellipsePerimeter;html=1;align=center;shadow=0;dashed=0;spacingTop=3;image=img/lib/active_directory/security.svg;" vertex="1" parent="1">
          <mxGeometry x="189" y="50" width="31.5" height="50" as="geometry" />
        </mxCell>
        <mxCell id="bBqMNh3TFkU5Wcg1Qvp1-7" value="" style="image;aspect=fixed;perimeter=ellipsePerimeter;html=1;align=center;shadow=0;dashed=0;spacingTop=3;image=img/lib/active_directory/security.svg;" vertex="1" parent="1">
          <mxGeometry x="370" y="50" width="31.5" height="50" as="geometry" />
        </mxCell>
        <mxCell id="bBqMNh3TFkU5Wcg1Qvp1-9" value="2049&lt;div&gt;&lt;br&gt;&lt;/div&gt;" style="text;html=1;align=center;verticalAlign=middle;resizable=0;points=[];autosize=1;strokeColor=none;fillColor=none;" vertex="1" parent="1">
          <mxGeometry x="320" y="23" width="50" height="40" as="geometry" />
        </mxCell>
      </root>
    </mxGraphModel>
  </diagram>
</mxfile>
